<?xml version="1.0" encoding="UTF-8"?>
<svg id="Layer_2" data-name="Layer 2" xmlns="http://www.w3.org/2000/svg" viewBox="0 0 440 151.78">
  <defs>
    <style>
      .cls-1 {
        fill: #f20000;
      }
    </style>
  </defs>
  <g id="Layer_1-2" data-name="Layer 1">
    <g>
      <g>
        <path d="m166.05,72.75h-56.12V21.74h56.12c8.45,0,15.31,6.85,15.31,15.31v20.41c0,8.38-6.85,15.31-15.31,15.31Zm-45.92-10.28h45.92c2.84,0,5.1-2.26,5.1-5.03v-20.41c0-2.84-2.26-5.1-5.1-5.1h-45.92v30.54Z"/>
        <path d="m244.68,72.75h-40.74c-8.45,0-15.31-6.92-15.31-15.31v-20.41c0-8.45,6.85-15.31,15.31-15.31h40.74c8.53,0,15.31,6.85,15.31,15.31v20.41c0,8.38-6.78,15.31-15.31,15.31Zm-40.74-10.28h40.74c2.92,0,5.17-2.26,5.17-5.03v-20.41c0-2.77-2.26-5.1-5.17-5.1h-40.74c-2.84,0-5.1,2.33-5.1,5.1v20.41c0,2.77,2.26,5.03,5.1,5.03Z"/>
        <path d="m277.48,72.75h-10.2V30.12c.07-4.66,3.79-8.38,8.45-8.38,3.13,0,5.68,1.68,7.22,4.15l22.59,36.22,22.67-36.3c1.46-2.41,4.15-4.08,7.21-4.08,4.59,0,8.38,3.72,8.38,8.38v42.64h-10.2v-36.3l-20.04,32.14c-1.53,2.48-4.15,4.15-7.29,4.15h-1.46c-3.06,0-5.76-1.68-7.21-4.08l-20.12-32.22v36.3Z"/>
        <path d="m351.08,21.74h10.2v51.02h-10.2V21.74Z"/>
        <path d="m378.78,37.04c0,2.84,2.33,5.1,5.1,5.1h40.81c8.45,0,15.31,6.85,15.31,15.3s-6.85,15.31-15.31,15.31h-55.16v-10.28h55.16c2.77,0,5.1-2.26,5.1-5.03s-2.33-5.1-5.1-5.1h-40.81c-8.38,0-15.31-6.85-15.31-15.3s6.92-15.31,15.31-15.31h55.93v10.2h-55.93c-2.77,0-5.1,2.33-5.1,5.1Z"/>
        <path d="m140.87,129.59v-40.81h-30.52v-10.2h71.22v10.2h-30.52v40.81h-10.17Z"/>
        <path d="m204.18,78.57h55.96v10.2h-55.96c-2.83,0-5.09,2.33-5.09,5.1v5.1h61.05v10.2h-61.05v5.1c0,2.77,2.25,5.03,5.09,5.03h55.96v10.28h-55.96c-8.43,0-15.33-6.92-15.33-15.31v-20.41c0-8.45,6.9-15.31,15.33-15.31Z"/>
        <path d="m278.33,93.88v20.41c0,2.77,2.49,5.03,5.46,5.03h60.02v10.28h-60.02c-9.04,0-16.37-6.92-16.37-15.31v-20.41c0-8.45,7.33-15.31,16.37-15.31h60.02v10.2h-60.02c-2.96,0-5.46,2.33-5.46,5.1Z"/>
        <path d="m361.39,129.59h-10.31v-51.02h10.2v20.41h68.51v-20.41h10.2v51.02h-10.2v-20.41h-68.35l-.05,20.41Z"/>
      </g>
      <g id="latest">
        <polygon class="cls-1" points="82.68 42.57 82.68 42.82 38.93 70.74 34.66 73.47 16.54 61.78 0 51.12 0 10.38 16.23 0 16.54 .19 38.93 14.55 82.68 42.57"/>
        <polygon class="cls-1" points="82.35 109.92 38.93 137.54 16.54 151.78 0 141.25 0 100.94 16.54 90.43 34.58 78.96 38.93 81.78 82.35 109.92"/>
        <polygon class="cls-1" points="82.68 48.4 82.68 104.45 38.94 76.24 38.93 76.24 38.93 76.2 82.68 48.4"/>
      </g>
    </g>
  </g>
</svg>